PathFileType	3	(X/Y/Z)	D:\minhoCalibration\240510\subject5_KPNP\preferred\preferred18.trc
DataRate	CameraRate	NumFrames	NumMarkers	Units	OrigDataRate	OrigDataStartFrame	OrigNumFrames
200.0	200.0	27	10	mm	200.0	306	155	
Frame#	Time	Left_Ankle_Outer1			Left_Ankle_Inner1			Left_Knee_Outer1			Left_Knee_Inner1			Left_Wrist1			Right_Wrist1			Right_Knee_Inner1			Right_Knee_Outer1			Right_Ankle_Inner1			Right_Ankle_Outer1			
		X1	Y1	Z1	X2	Y2	Z2	X3	Y3	Z3	X4	Y4	Z4	X5	Y5	Z5	X6	Y6	Z6	X7	Y7	Z7	X8	Y8	Z8	X9	Y9	Z9	X10	Y10	Z10	
306	1.52	-107.44682	77.066971	-710.93195	-154.12881	87.596039	-692.6723	14.845774	526.40411	-600.26855	-73.929588	513.0589	-566.0368	85.772667	998.58295	-679.00452	-210.9229	1130.7997	-602.76947	-298.54163	662.09814	-349.60416	-361.49683	725.19305	-347.79041	-480.69769	270.41013	-244.58243	-562.56812	312.05844	-277.4483
307	1.525	-106.81655	76.774277	-711.52582	-154.32622	87.235382	-693.68933	15.314623	526.60797	-600.47113	-75.043846	512.89941	-569.85681	87.160172	999.72363	-676.52222	-212.3564	1127.9398	-604.05334	-297.6814	655.24835	-357.70743	-361.88565	717.67505	-355.92914	-477.0578	259.32556	-262.47409	-558.70911	300.52618	-296.5936
308	1.53	-106.28393	76.656189	-711.64252	-153.55501	87.219009	-693.82458	15.510794	526.24701	-600.55554	-74.935226	513.57452	-570.61798	87.899162	1000.4272	-674.06146	-213.21024	1125.6282	-605.9267	-296.80182	648.49634	-366.11874	-361.50977	709.90387	-364.4375	-473.17181	248.69743	-280.40659	-554.46625	289.31418	-316.21591
309	1.535	-106.32172	75.986931	-711.36072	-152.89172	87.090073	-695.1402	15.486993	525.9577	-600.44135	-74.396629	514.0108	-570.10938	89.114243	1001.3593	-671.74823	-214.00113	1122.7944	-608.30322	-295.88126	641.17621	-373.85928	-360.89297	702.13715	-373.0083	-468.96466	238.33922	-298.50977	-549.95282	278.59665	-335.32895
310	1.54	-105.38596	76.222672	-711.90112	-152.71274	87.060661	-694.80261	16.082493	526.01892	-600.8269	-75.663292	513.45593	-573.41614	90.167328	1002.2353	-669.37689	-215.42412	1119.86	-608.85773	-295.13348	634.6795	-382.9566	-360.8587	694.72162	-381.60617	-464.25534	228.3735	-316.54736	-545.23273	268.32224	-354.84219
311	1.545	-105.08998	75.997047	-712.05334	-152.33383	86.925949	-695.11157	16.710424	526.60681	-600.97595	-75.944328	513.32794	-575.14825	91.154663	1003.0712	-667.0368	-216.38176	1117.2769	-610.69635	-294.08044	627.92377	-391.01514	-360.61252	687.35211	-390.57745	-459.34357	218.83733	-334.78384	-540.05054	258.13824	-374.05292
312	1.55	-104.43716	75.872833	-712.68237	-151.79306	86.936539	-695.63269	16.610889	525.79199	-600.87329	-75.837524	513.71521	-576.48596	92.045166	1003.8496	-664.73615	-217.62848	1114.6107	-612.25635	-292.82147	621.66315	-399.84784	-360.42383	680.25262	-399.60989	-454.17755	209.4171	-353.06836	-534.4353	248.40521	-393.40353
313	1.555	-104.66991	75.469315	-712.10645	-151.45746	86.796524	-696.42297	16.87851	525.60791	-601.06592	-75.785751	513.88135	-577.7561	92.794846	1004.5614	-662.40039	-218.98943	1111.9423	-614.40656	-292.02826	615.37714	-408.4191	-360.54147	673.19513	-408.99307	-448.27383	200.73085	-371.2074	-528.53607	238.98259	-412.79248
314	1.56	-103.73755	75.635841	-712.966	-151.12148	86.663818	-696.63861	17.35627	525.70758	-601.43146	-75.767647	513.9046	-578.81946	93.307831	1005.1776	-660.15289	-219.81725	1109.5139	-615.52899	-291.01489	609.41693	-417.08917	-359.96451	666.26489	-418.61401	-442.41745	192.35381	-389.36227	-522.25409	229.92194	-432.12213
315	1.565	-103.57579	75.54277	-712.93091	-150.93619	86.681961	-696.81458	17.467611	525.75592	-601.64471	-75.767418	514.01398	-579.57275	93.582748	1005.4888	-658.18152	-220.83104	1106.5944	-617.91052	-290.17148	603.65515	-425.76556	-360.00113	659.53076	-428.25867	-436.07825	184.20248	-407.51202	-515.64819	221.34843	-451.48969
316	1.57	-103.35982	75.354073	-713.23584	-150.54448	86.624519	-696.46295	17.52417	525.61334	-601.73859	-75.564018	513.86597	-580.6051	93.54763	1005.7238	-656.27368	-222.02356	1104.3875	-619.47412	-289.29425	598.23987	-434.99976	-359.66827	652.82806	-438.27396	-429.6069	176.48257	-425.80423	-508.70871	213.14931	-470.8624
317	1.575	-103.13295	75.483459	-713.5498	-150.47041	86.65271	-696.62164	17.448168	525.56049	-601.81812	-75.908188	514.29425	-581.36456	95.291481	1007.3463	-652.70013	-223.12971	1101.1903	-621.43274	-287.86267	592.84149	-443.54175	-359.29654	646.52124	-448.43805	-422.86349	169.20145	-443.83945	-501.51718	205.19856	-490.13583
318	1.58	-103.04774	75.502075	-713.57855	-150.30496	86.675232	-696.81042	17.423246	525.61932	-601.84125	-75.977638	514.28265	-582.40393	95.51046	1007.8733	-650.41241	-224.01289	1098.6119	-623.68585	-286.98154	587.64008	-452.33441	-358.52667	640.45026	-458.77402	-415.99338	162.24922	-461.77127	-493.98767	197.74536	-509.36121
319	1.585	-102.8849	75.513084	-713.742	-150.36627	86.798599	-696.59052	17.541397	525.83875	-601.88599	-76.358566	514.66473	-582.77112	95.803215	1008.4976	-648.11926	-225.17728	1095.2412	-626.05334	-285.64865	582.44244	-459.47949	-358.04962	634.50732	-469.16446	-408.68188	155.57104	-479.63803	-486.27621	190.66206	-528.37469
320	1.59	-103.00262	75.411903	-713.59521	-150.39975	86.757065	-696.61609	17.222763	525.82141	-601.62036	-76.540092	514.71716	-583.65411	95.953842	1009.2628	-645.82007	-225.65643	1092.6602	-628.7395	-284.95844	576.763	-471.28537	-357.12128	628.85455	-479.79065	-400.92099	149.4769	-497.63068	-478.24161	184.01395	-547.35846
321	1.595	-103.18475	75.017471	-713.31812	-150.2562	86.608574	-696.60608	17.144747	526.24091	-601.53503	-76.937057	514.90753	-584.41553	96.15625	1010.1592	-643.51422	-226.92203	1089.3784	-631.09479	-283.12119	572.13684	-479.36832	-356.01144	623.1781	-490.4765	-393.32529	143.58742	-515.18945	-470.07181	177.82123	-566.13562
322	1.6	-102.59549	75.080849	-713.91559	-150.08008	86.529968	-696.9212	16.685276	525.85767	-601.03467	-77.552116	515.1369	-585.21967	96.345818	1010.9337	-641.18488	-227.20773	1087.3704	-634.32544	-281.535	567.55231	-488.45844	-355.14838	617.59851	-501.1897	-385.92084	138.3273	-532.32935	-461.56317	172.08846	-584.69873
323	1.605	-102.31362	74.977173	-714.03839	-149.49966	86.366562	-697.86987	16.548929	525.98236	-600.75372	-77.605347	514.83539	-586.76624	96.164787	1011.5645	-638.86407	-227.99254	1084.4091	-637.27197	-279.94312	563.08545	-497.76758	-353.61801	612.4729	-512.21912	-377.91116	133.20828	-549.25403	-452.86768	166.71642	-603.19897
324	1.61	-101.97293	74.885246	-714.22382	-149.46783	86.425392	-697.33282	16.269278	525.68103	-600.26996	-78.001457	514.83038	-587.28217	96.33419	1012.1511	-636.24969	-228.45157	1082.2292	-640.42871	-277.81848	558.68091	-507.53403	-351.85559	607.53143	-523.53845	-369.89993	128.56441	-565.92816	-443.88571	161.63234	-621.33606
325	1.615	-101.79141	74.719299	-714.21899	-149.03105	86.609146	-697.81042	16.734673	526.02588	-600.20471	-78.869812	514.78284	-587.60388	95.865417	1012.788	-634.24518	-229.23575	1079.5897	-644.12329	-276.20764	554.66547	-516.54688	-350.14502	602.37775	-534.77032	-361.52798	123.7479	-582.49274	-434.6449	156.92676	-639.32794
326	1.62	-101.49418	74.684006	-714.2558	-148.83469	86.545105	-697.85101	15.961703	525.62915	-599.34564	-78.821846	514.74078	-588.88879	95.353752	1013.454	-632.19177	-229.55753	1077.2941	-646.76221	-274.01193	550.61707	-525.99542	-347.8949	598.29663	-545.86902	-353.16827	119.56485	-598.93256	-425.00534	152.28255	-656.96069
327	1.625	-101.13554	74.499588	-714.57391	-148.50446	86.413048	-698.45251	16.477064	526.03717	-599.23065	-79.184593	514.8208	-589.38287	94.947845	1014.1982	-630.0036	-230.08235	1074.9922	-649.97498	-271.79013	546.75555	-535.2821	-346.03412	593.59747	-556.50867	-344.7309	115.85558	-614.81329	-415.55215	148.34294	-674.63464
328	1.63	-100.76251	74.76223	-714.45251	-148.44426	86.465569	-698.15295	16.383219	526.10657	-598.78558	-79.456955	514.71442	-590.15302	94.637573	1014.8758	-627.80597	-230.67073	1072.2987	-653.48175	-270.30197	543.46222	-544.73535	-343.99112	589.12201	-567.55927	-336.14069	112.36872	-630.28241	-405.64493	144.66203	-691.94629
329	1.635	-100.99928	74.422615	-713.83368	-148.0695	86.591248	-698.46338	16.082497	526.09393	-598.37036	-79.748955	514.81165	-590.6662	94.138084	1015.5344	-625.60736	-230.56662	1069.7349	-658.34155	-268.4317	539.88501	-554.01862	-341.34637	585.11707	-579.10242	-327.97638	109.06811	-645.70825	-395.31299	141.0717	-708.74969
330	1.64	-100.32591	74.645409	-714.68976	-147.99677	86.386742	-698.58624	15.300825	526.02612	-597.81848	-80.191238	515.42297	-590.66302	93.502693	1016.1417	-623.52173	-231.45528	1067.7795	-660.1554	-266.28455	536.41455	-563.37689	-338.69861	581.54291	-590.2746	-319.13159	105.95327	-660.56598	-385.25247	138.47635	-726.03467
331	1.645	-100.6927	74.272758	-714.03662	-147.82269	86.413498	-698.72986	14.93649	526.1178	-597.45764	-80.39447	515.43176	-591.17065	92.771622	1016.7814	-621.44873	-230.98904	1065.5155	-665.17316	-264.40686	533.0752	-572.44495	-336.05432	577.90015	-601.21954	-310.4476	103.86147	-674.93488	-374.47763	135.65994	-742.42529
332	1.65	-100.08321	74.452805	-714.41144	-147.63693	86.319641	-698.68988	14.543871	526.01898	-597.00311	-80.971992	515.63538	-591.61578	91.996925	1017.3707	-619.4187	-231.08203	1063.4993	-668.84961	-262.16754	529.84631	-581.7124	-333.13611	574.461	-612.39508	-302.53247	101.28042	-689.29303	-363.59943	133.37897	-758.62274
